<svg width="456" height="405" xmlns="http://www.w3.org/2000/svg">

 <g>
  <title>background</title>
  <rect fill="none" id="canvas_background" height="407" width="458" y="-1" x="-1"/>
 </g>
 <g>
  <title>Layer 1</title>
  <g id="svg_146"/>
  <g id="svg_160">
   <path fill="#ffffff" id="svg_148" stroke="#000000" stroke-width="0.25" stroke-miterlimit="10" d="m227.629,49.15c0,0 -35.802,-48.145 -111.915,-46.906c-76.114,1.239 -118.92,63.84 -114.387,108.625c0.007,51.74 20.155,95.548 21.397,121.793c1.242,26.245 -1.242,36.761 -4.937,46.906c-3.696,10.145 -4.115,32.094 -4.115,32.094s54.406,57.904 72.418,64.187c21.469,11.129 40.315,28.559 70.769,24.687c30.454,-3.872 39.083,-10.121 51.022,-20.574c11.939,-10.454 1.647,-23.043 1.647,-23.043s-6.439,-15.878 11.389,-26.332c17.829,-10.454 29.758,-66.656 29.758,-66.656s18.178,-36.443 15.632,-55.118c-2.546,-18.675 -4.937,-36.226 -4.937,-36.226s3.698,-16.741 8.231,-28.803c4.533,-12.062 -1.644,-26.754 -4.113,-37.853c0.005,-5.465 -14.408,-16.459 4.113,-16.459s75.706,0 75.706,0l13.993,-1.644l32.923,-18.106c0,0 -30.956,-15.869 -33.748,-16.457c-2.792,-0.589 -15.637,-3.293 -15.637,-3.293l-115.209,-0.822z"/>
   <path id="svg_149" fill="#000000" stroke="#FFFFFF" stroke-width="0.25" stroke-miterlimit="10" d="m151.923,80.393c0.952,-0.952 8.228,-6.994 8.228,-6.994s7.199,-3.086 -1.647,-7.406c-8.846,-4.32 -19.75,-12.551 -19.75,-12.551s-4.115,-6.584 -4.937,-12.344c-0.822,-5.76 -2.674,-7.199 -2.674,-7.199s-3.19,-3.679 -15.635,1.027c-6.789,2.469 -11.317,1.647 -11.317,1.647s-1.442,-2.881 -1.852,-11.727s-6.996,3.293 -8.641,4.733s-4.528,10.077 -8.023,6.582c-3.496,-3.496 -9.255,-5.145 -9.05,-4.937c0.205,0.207 -5.299,0.617 -5.299,11.186c0,10.57 -10.107,6.789 -14.195,7.252c-4.089,0.463 -9.875,-1.003 -10.801,0.54c-0.926,1.543 -2.855,0.617 3.086,12.961c5.94,12.344 -8.255,10.261 -12.19,12.729c-3.935,2.469 -11.572,6.558 8.641,9.952c7.638,0.849 11.804,1.157 11.572,8.487c-0.232,7.329 -0.54,11.572 7.792,10.415c0.309,-1.08 2.931,11.881 3.857,15.353c0.926,3.472 3.781,15.353 8.795,8.795c5.015,-6.558 9.412,-10.184 11.109,-8.41c0,0 13.347,12.807 15.353,12.961c2.006,0.155 6.326,-1.388 10.492,-8.949c4.166,-7.56 4.629,-7.252 14.658,-6.48c0,0 3.703,0.772 6.172,1.08c2.469,0.309 4.012,-1.852 4.166,-5.863c0.154,-4.012 -5.401,-10.801 6.48,-11.572c11.881,-0.771 19.595,-1.234 8.023,-10.029c-11.57,-8.797 -3.366,-10.287 -2.413,-11.239z"/>
   <path id="svg_150" fill="#FFFFFF" stroke="#FFFFFF" stroke-width="0.25" stroke-miterlimit="10" d="m173.394,135.141c0,0 9.335,-0.232 12.652,1.003c3.318,1.234 10.57,5.786 12.807,8.178c2.237,2.391 5.014,5.863 5.478,8.486c0.463,2.623 0.617,9.566 -1.08,11.572c-1.697,2.006 -12.035,10.723 -13.887,11.572s-6.172,2.237 -8.023,2.469c-1.852,0.232 -7.406,0.54 -10.878,0.463c-3.472,-0.078 -15.97,-2.469 -20.444,-6.095c-4.475,-3.626 -9.721,-9.643 -10.029,-12.729c-0.309,-3.086 -1.852,-6.403 3.858,-13.424c5.709,-7.021 11.495,-8.332 15.815,-9.72c4.319,-1.389 13.731,-1.775 13.731,-1.775z"/>
   <path id="svg_151" fill="#FFFFFF" stroke="#FFFFFF" stroke-width="0.25" stroke-miterlimit="10" d="m237.712,167.956c1.027,14.4 16.36,16.664 18.414,16.664s4.32,0.513 2.57,-12.344c-0.309,-6.789 3.496,-18.103 5.039,-20.572c1.543,-2.469 2.059,-5.454 -2.261,-5.454c-4.321,0.001 -24.789,7.306 -23.762,21.706z"/>
   <path id="svg_152" fill="none" stroke="#FFFFFF" stroke-width="0.25" stroke-miterlimit="10" d="m261.473,146.251c0,0 -4.812,0.793 -5.299,0.979c-0.487,0.186 -19.49,6.326 -18.463,20.727"/>
   <path id="svg_153" fill="#FFFFFF" stroke="#FFFFFF" stroke-width="0.25" stroke-miterlimit="10" d="m215.517,251.095l21.37,0c0,0 9.026,0.848 8.872,12.729c-0.155,11.881 -4.089,28.545 -28.468,24.687c-24.379,-3.858 -20.753,-4.783 -32.557,-12.421c-11.804,-7.638 -11.109,-13.656 12.19,-22.99c7.329,-2.314 18.593,-2.005 18.593,-2.005z"/>
   <path id="svg_154" fill="#6B4B9D" stroke="#EC1C80" stroke-width="0.25" stroke-miterlimit="10" d="m79.505,-31.086"/>
   <path fill="#ffffff" id="svg_155" stroke="#000000" stroke-width="0.25" stroke-miterlimit="10" d="m395.195,102.971l5.863,10.723l1.311,2.546l0.463,2.083l-1.311,2.623l-2.508,2.623l-3.201,1.466l-2.931,0l-4.552,-6.48l-5.169,-8.795c0,0 -0.309,-3.395 1.08,-5.324c1.388,-1.929 4.012,-3.086 5.015,-3.549c1.003,-0.463 2.15,-1.003 2.965,-1.389c0.815,-0.385 2.975,3.473 2.975,3.473z"/>
   <path fill="#ffffff" id="svg_156" stroke="#000000" stroke-width="0.25" stroke-miterlimit="10" d="m407.616,86.075c25.228,25.228 25.228,25.228 25.228,25.228s3.317,2.7 -2.083,8.332c-5.4,5.632 -3.472,5.709 -17.821,-8.023c-14.35,-13.733 -17.204,-14.967 -10.107,-22.296c4.011,-4.167 4.783,-3.241 4.783,-3.241z"/>
   <path fill="#ffffff" id="svg_157" stroke="#000000" stroke-width="0.25" stroke-miterlimit="10" d="m413.865,63.933c34.485,1.08 34.485,1.08 34.485,1.08s5.015,-1.003 4.629,7.02c-0.386,8.023 2.546,7.715 -33.714,7.175c-9.643,-0.078 -12.189,0.077 -11.804,-10.338c0.077,-3.009 -0.772,-5.169 2.623,-4.937c3.781,0 3.781,0 3.781,0z"/>
   <path fill="#ffffff" id="svg_158" stroke="#000000" stroke-width="0.25" stroke-miterlimit="10" d="m416.478,25.461l-18.192,17.691c0,0 -5.757,4.525 1.234,10.184c6.991,5.658 5.044,6.379 21.293,-10.593c11.828,-12.551 9.46,-12.549 2.98,-18.207c-4.32,-3.704 -7.315,0.925 -7.315,0.925z"/>
   <path fill="#ffffff" id="svg_159" stroke-width="0.25" stroke-miterlimit="10" d="m379.973,38.94l6.071,2.777c0,0 4.219,4.937 7.614,-8.436c5.656,-10.801 2.884,-11.211 -1.852,-13.783s-5.964,2.676 -8.949,7.098c-2.985,4.422 -7.715,9.668 -3.501,11.828c4.214,2.16 0.617,0.516 0.617,0.516z"/>
  </g>
 </g>
</svg>